# xmcd
#
# Track frame offsets:
#	150
#	23810
#	44745
#	64166
#	85654
#	103512
#	123466
#	139330
#	159712
#	180412
#
# Disc length: 2676 seconds
#
# Revision: 2
# Processed by: cddbd v1.5.2PL0 Copyright (c) Steve Scherf et al.
# Submitted via: dBpowerAMP V4.0
#
DISCID=860a720a
DTITLE=曹格 - 格格Blue
DYEAR=2006
DGENRE=Pop
TTITLE0=Superwoman
TTITLE1=世界唯一的你
TTITLE2=姑娘
TTITLE3=情人節快樂
TTITLE4=Fall In Love
TTITLE5=笑我笨
TTITLE6=燭光晚餐
TTITLE7=數到五答應我
TTITLE8=沉默玩具
TTITLE9=刮目相看
EXTD=
EXTT0=
EXTT1=
EXTT2=
EXTT3=
EXTT4=
EXTT5=
EXTT6=
EXTT7=
EXTT8=
EXTT9=
PLAYORDER=
